Coordinates
version=1
nRows=5
nColumns=40
inDegrees=yes

Units are S.I. units (second, meters, Newtons, ...)
Angles are in degrees.

endheader
time	pelvis_tilt	pelvis_list	pelvis_rotation	pelvis_tx	pelvis_ty	pelvis_tz	hip_flexion_r	hip_adduction_r	hip_rotation_r	knee_angle_r	knee_angle_r_beta	ankle_angle_r	subtalar_angle_r	mtp_angle_r	hip_flexion_l	hip_adduction_l	hip_rotation_l	knee_angle_l	knee_angle_l_beta	ankle_angle_l	subtalar_angle_l	mtp_angle_l	lumbar_extension	lumbar_bending	lumbar_rotation	arm_flex_r	arm_add_r	arm_rot_r	elbow_flex_r	pro_sup_r	wrist_flex_r	wrist_dev_r	arm_flex_l	arm_add_l	arm_rot_l	elbow_flex_l	pro_sup_l	wrist_flex_l	wrist_dev_l
     47.57250000	     -3.14371565	     -4.92559704	      1.28665569	      1.13365633	      0.91598248	      0.46448522	     23.76327151	      0.38681608	    -12.47470853	     25.90484811	     25.90484811	      6.50900437	     -6.69404682	     -2.94240436	      2.85601569	    -12.12204083	     -6.93203623	     45.29835442	     45.29835442	      4.83046878	    -16.68370040	    -15.16967601	     -9.31263585	      7.99551125	      1.53825977	    -11.22621687	    -10.73896814	    -13.55971138	     20.52826445	     47.08612560	      0.00000000	      0.00000000	     18.55240268	    -16.64668208	     -6.94182407	     91.81418165	     48.09220182	      0.00000000	      0.00000000
     47.58371429	     -3.11258433	     -4.99692651	      1.63019746	      1.13367707	      0.91740903	      0.46656193	     22.88807289	      0.52994758	    -12.95960121	     25.60555569	     25.60555569	      7.12090377	     -6.31364412	     -2.94699571	      5.32610790	    -12.36940164	     -5.27735480	     49.76377059	     49.76377059	      4.41210005	    -17.18430714	     -9.14185972	     -9.29512563	      8.01776050	      1.44705959	     -9.61815809	    -10.85402432	    -12.97929948	     22.17530277	     46.96861496	      0.00000000	      0.00000000	     17.44296944	    -15.73477060	     -7.31213935	     89.08224507	     48.07421646	      0.00000000	      0.00000000
     47.59492857	     -3.14928581	     -5.22731902	      1.99498492	      1.13344728	      0.91866662	      0.46864659	     21.98659312	      0.89069862	    -13.43409744	     25.05881483	     25.05881483	      7.57264986	     -5.98502028	     -2.92636947	      7.98653611	    -12.75019812	     -3.65806115	     54.04862091	     54.04862091	      4.45528511	    -17.10550030	     -2.92211353	     -9.28635161	      8.12041917	      1.72168180	     -8.23313909	    -11.04356962	    -11.91080139	     24.08211167	     46.79022378	      0.00000000	      0.00000000	     16.37901466	    -14.95418846	     -6.53723889	     86.86919476	     48.00234539	      0.00000000	      0.00000000
     47.60614286	     -3.17021892	     -5.43247932	      2.38747235	      1.13303302	      0.91986709	      0.47041955	     21.08383951	      1.20121427	    -13.94103325	     24.51238220	     24.51238220	      7.93256667	     -5.63607154	     -3.02496189	     10.55450013	    -12.97123727	     -2.08000386	     57.76890592	     57.76890592	      4.14842223	    -17.34027961	      1.47048529	     -9.28549139	      8.25834972	      1.90094093	     -6.66311913	    -11.31388491	    -11.03067137	     25.92057811	     46.63851645	      0.00000000	      0.00000000	     15.42110640	    -14.15687197	     -6.06264395	     83.91215786	     47.93173159	      0.00000000	      0.00000000
     47.61735714	     -2.98058814	     -5.52871709	      2.69667523	      1.13263576	      0.92124476	      0.47217581	     20.01615168	      1.47181580	    -14.13959768	     24.07420278	     24.07420278	      8.35039430	     -5.48303211	     -3.06854255	     12.58092217	    -13.14777769	     -0.96501504	     60.63432866	     60.63432866	      2.87032804	    -17.78495016	      1.76264806	     -9.64637689	      8.16513062	      2.21723554	     -4.52612176	    -11.45459484	    -10.98078102	     26.87293533	     46.61215541	      0.00000000	      0.00000000	     14.09548487	    -13.29541052	     -5.49632328	     82.75632210	     47.86638785	      0.00000000	      0.00000000
